<svg preserveAspectRatio="xMidYMid meet" data-bbox="0 0 198.976 35.779" xmlns="http://www.w3.org/2000/svg" viewBox="0 0 198.976 35.779" height="36" width="199" data-type="color" role="presentation" aria-hidden="true" aria-label="">
    <g>
        <path fill="#ffffff" d="M0 21.144C0 12.976 6.216 6.52 14.578 6.52c4.29 0 7.645 1.713 9.516 3.422a3.202 3.202 0 0 1 1.1 2.317 3.151 3.151 0 0 1-.88 2.21l-8.471 10.097a2.544 2.544 0 0 1-2.09.992c-1.652 0-2.861-1.16-2.861-2.757a2.49 2.49 0 0 1 .658-1.821l6.659-7.836c-.938-.665-2.44-.993-3.63-.993-4.732 0-8.475 3.97-8.475 8.993 0 4.967 3.687 8.993 8.474 8.993a7.87 7.87 0 0 0 5.83-2.482c.88-.716 1.487-1.38 2.64-1.38a2.845 2.845 0 0 1 2.12.816c.563.554.872 1.318.852 2.11a3.196 3.196 0 0 1-.881 1.985c-2.09 2.54-5.885 4.582-10.56 4.582C6.271 35.768 0 29.312 0 21.144Z" data-color="1"></path>
        <path fill="#ffffff" d="m42.96 25.67-7.536 8.993a2.523 2.523 0 0 1-2.09 1.049 2.783 2.783 0 0 1-2.025-.799 2.8 2.8 0 0 1-.836-2.015 2.58 2.58 0 0 1 .662-1.82l8.195-9.787-8.195-9.766a3.358 3.358 0 0 1-.714-1.932 3.067 3.067 0 0 1 3.08-3.034c.867.007 1.689.39 2.254 1.048l7.537 8.993 7.554-9.031a2.63 2.63 0 0 1 2.09-.993 2.744 2.744 0 0 1 2.017.767c.54.52.844 1.24.844 1.99a2.58 2.58 0 0 1-.659 1.822l-8.198 9.769 8.18 9.769c.445.569.695 1.266.715 1.988a3.106 3.106 0 0 1-3.08 3.034 2.885 2.885 0 0 1-2.258-1.108l-7.536-8.937Z" data-color="1"></path>
        <path fill="#ffffff" d="M74.371 35.768a13.64 13.64 0 0 0 9.133-3.422v.294a3.04 3.04 0 0 0 1.482 2.715 3.02 3.02 0 0 0 3.087 0 3.04 3.04 0 0 0 1.483-2.715V9.626a3.032 3.032 0 0 0-3.026-2.934 3.032 3.032 0 0 0-3.026 2.934v.388A13.415 13.415 0 0 0 74.37 6.52c-7.92 0-13.916 6.456-13.916 14.624s5.997 14.624 13.916 14.624Zm9.133-15.012v.388c0 5.13-3.739 9.01-8.47 9.01-4.732 0-8.474-3.862-8.474-8.993 0-5.13 3.742-8.993 8.473-8.993 4.62 0 8.251 3.677 8.47 8.588Z" clip-rule="evenodd" fill-rule="evenodd" data-color="1"></path>
        <path fill="#ffffff" d="M97.64 19.379c0-7.892 5.445-12.859 12.379-12.859 6.933 0 12.376 4.967 12.376 12.859v13.243a3.071 3.071 0 0 1-3.025 3.09 3.027 3.027 0 0 1-2.158-.91 3.047 3.047 0 0 1-.869-2.18V19.159c0-4.582-2.805-7.008-6.324-7.008-3.519 0-6.328 2.426-6.328 7.008v13.463a3.04 3.04 0 0 1-1.482 2.716 3.02 3.02 0 0 1-3.087 0 3.04 3.04 0 0 1-1.483-2.716V19.379Z" data-color="1"></path>
        <path fill="#ffffff" d="M126.632 9.886a2.799 2.799 0 0 1 .816-1.995 2.782 2.782 0 0 1 1.988-.818h1.98V2.934A3.031 3.031 0 0 1 134.442 0a3.033 3.033 0 0 1 3.026 2.934v4.139h6.435a2.795 2.795 0 0 1 2.787 2.813 2.82 2.82 0 0 1-2.787 2.796h-6.435V22.69c0 4.855 2.693 7.34 6.435 7.34a2.837 2.837 0 0 1 2.833 2.841 2.837 2.837 0 0 1-2.833 2.842c-7.097 0-12.487-5.023-12.487-13.023V12.7h-1.98a2.819 2.819 0 0 1-2.804-2.813Z" data-color="1"></path>
        <path fill="#ffffff" d="M150.844 21.144c0-8.168 6.219-14.624 14.578-14.624 4.292 0 7.665 1.713 9.519 3.422a3.217 3.217 0 0 1 1.101 2.317 3.176 3.176 0 0 1-.882 2.21l-8.473 10.097a2.54 2.54 0 0 1-2.091.992c-1.651 0-2.86-1.16-2.86-2.757a2.486 2.486 0 0 1 .658-1.821l6.655-7.836c-.934-.665-2.418-.993-3.631-.993-4.728 0-8.47 3.97-8.47 8.993 0 4.967 3.686 8.993 8.47 8.993a7.88 7.88 0 0 0 5.833-2.482c.882-.716 1.484-1.38 2.641-1.38a2.842 2.842 0 0 1 2.118.816 2.86 2.86 0 0 1 .851 2.11 3.193 3.193 0 0 1-.878 1.985c-2.091 2.54-5.889 4.582-10.565 4.582-8.303 0-14.574-6.456-14.574-14.624Z" data-color="1"></path>
        <path fill="#F8A07E" d="M198.976 20.935a5 5 0 1 1-10 0 5 5 0 0 1 10 0z" data-color="2"></path>
    </g>
</svg>